# xmcd
# 
# Track frame offsets:
#     150
#     36611
#     80691
#     127307
#     172576
#     227849
#     276500
# 
# Disc length: 4465
# 
# Revision: 0
# Processed by: cddbd v1.5.2PL0 Copyright (c) Steve Scherf et al.
# Submitted via: BonkEnc v1.0.6
# 
DISCID=64116f07
DTITLE=McCaig, Donald - Rhett CD09
DYEAR=2007
DGENRE=
TTITLE0=01
TTITLE1=02
TTITLE2=03
TTITLE3=04
TTITLE4=05
TTITLE5=06
TTITLE6=07
EXTD=Hörbuch
EXTT0=
EXTT1=
EXTT2=
EXTT3=
EXTT4=
EXTT5=
EXTT6=
PLAYORDER=
